# xmcd
#
# Track frame offsets: 
#        150
#        27256
#        53650
#        75784
#        94991
#        116329
#        141809
#        161270
#        183893
#        200310
#        223191
#
# Disc length: 3278 seconds
#
# Revision: 0
# Processed by: cddbd v1.5.2PL0 Copyright (c) Steve Scherf et al.
# Submitted via: ExactAudioCopy v1.0b3
#
DISCID=840ccc0b
DTITLE=Yen Khoa - Cau Chuyen Dau Nam
DYEAR=1999
DGENRE=
TTITLE0=Cau chuyen dau nam
TTITLE1=Hanh phuc dau Xuan
TTITLE2=Don Xuan nay nho Xuan xua
TTITLE3=Canh thiep dau Xuan
TTITLE4=Nho nhau hoai
TTITLE5=Yen Khoa, Thai Chau - Dam cuoi dau Xuan
TTITLE6=Mua hoa anh dao
TTITLE7=Xuan dep lam sao
TTITLE8=Tam su ngay Xuan
TTITLE9=Neu Xuan nay vang anh
TTITLE10=Xuan ve tren lang que
EXTD=
EXTT0=
EXTT1=
EXTT2=
EXTT3=
EXTT4=
EXTT5=
EXTT6=
EXTT7=
EXTT8=
EXTT9=
EXTT10=
PLAYORDER=
